<?xml version="1.0" encoding="utf-8"?>
<svg xmlns="http://www.w3.org/2000/svg" xmlns:xlink="http://www.w3.org/1999/xlink" width="600" height="400" viewBox="0 0 2400 1600">
<defs>
  <clipPath id="clip130">
    <rect x="0" y="0" width="2400" height="1600"/>
  </clipPath>
</defs>
<path clip-path="url(#clip130)" d="
M0 1600 L2400 1600 L2400 0 L0 0  Z
  " fill="#ffffff" fill-rule="evenodd" fill-opacity="1"/>
<defs>
  <clipPath id="clip131">
    <rect x="480" y="0" width="1681" height="1600"/>
  </clipPath>
</defs>
<path clip-path="url(#clip130)" d="
M155.765 1486.45 L2352.76 1486.45 L2352.76 47.2441 L155.765 47.2441  Z
  " fill="#ffffff" fill-rule="evenodd" fill-opacity="1"/>
<defs>
  <clipPath id="clip132">
    <rect x="155" y="47" width="2198" height="1440"/>
  </clipPath>
</defs>
<polyline clip-path="url(#clip132)" style="stroke:#000000; stroke-linecap:butt; stroke-linejoin:round; stroke-width:2; stroke-opacity:0.1; fill:none" points="
  204.244,1486.45 204.244,47.2441 
  "/>
<polyline clip-path="url(#clip132)" style="stroke:#000000; stroke-linecap:butt; stroke-linejoin:round; stroke-width:2; stroke-opacity:0.1; fill:none" points="
  617.587,1486.45 617.587,47.2441 
  "/>
<polyline clip-path="url(#clip132)" style="stroke:#000000; stroke-linecap:butt; stroke-linejoin:round; stroke-width:2; stroke-opacity:0.1; fill:none" points="
  1030.93,1486.45 1030.93,47.2441 
  "/>
<polyline clip-path="url(#clip132)" style="stroke:#000000; stroke-linecap:butt; stroke-linejoin:round; stroke-width:2; stroke-opacity:0.1; fill:none" points="
  1444.27,1486.45 1444.27,47.2441 
  "/>
<polyline clip-path="url(#clip132)" style="stroke:#000000; stroke-linecap:butt; stroke-linejoin:round; stroke-width:2; stroke-opacity:0.1; fill:none" points="
  1857.61,1486.45 1857.61,47.2441 
  "/>
<polyline clip-path="url(#clip132)" style="stroke:#000000; stroke-linecap:butt; stroke-linejoin:round; stroke-width:2; stroke-opacity:0.1; fill:none" points="
  2270.96,1486.45 2270.96,47.2441 
  "/>
<polyline clip-path="url(#clip130)" style="stroke:#000000; stroke-linecap:butt; stroke-linejoin:round; stroke-width:4; stroke-opacity:1; fill:none" points="
  155.765,1486.45 2352.76,1486.45 
  "/>
<polyline clip-path="url(#clip130)" style="stroke:#000000; stroke-linecap:butt; stroke-linejoin:round; stroke-width:4; stroke-opacity:1; fill:none" points="
  204.244,1486.45 204.244,1467.55 
  "/>
<polyline clip-path="url(#clip130)" style="stroke:#000000; stroke-linecap:butt; stroke-linejoin:round; stroke-width:4; stroke-opacity:1; fill:none" points="
  617.587,1486.45 617.587,1467.55 
  "/>
<polyline clip-path="url(#clip130)" style="stroke:#000000; stroke-linecap:butt; stroke-linejoin:round; stroke-width:4; stroke-opacity:1; fill:none" points="
  1030.93,1486.45 1030.93,1467.55 
  "/>
<polyline clip-path="url(#clip130)" style="stroke:#000000; stroke-linecap:butt; stroke-linejoin:round; stroke-width:4; stroke-opacity:1; fill:none" points="
  1444.27,1486.45 1444.27,1467.55 
  "/>
<polyline clip-path="url(#clip130)" style="stroke:#000000; stroke-linecap:butt; stroke-linejoin:round; stroke-width:4; stroke-opacity:1; fill:none" points="
  1857.61,1486.45 1857.61,1467.55 
  "/>
<polyline clip-path="url(#clip130)" style="stroke:#000000; stroke-linecap:butt; stroke-linejoin:round; stroke-width:4; stroke-opacity:1; fill:none" points="
  2270.96,1486.45 2270.96,1467.55 
  "/>
<path clip-path="url(#clip130)" d="M204.244 1515.64 Q200.633 1515.64 198.805 1519.2 Q196.999 1522.75 196.999 1529.87 Q196.999 1536.98 198.805 1540.55 Q200.633 1544.09 204.244 1544.09 Q207.879 1544.09 209.684 1540.55 Q211.513 1536.98 211.513 1529.87 Q211.513 1522.75 209.684 1519.2 Q207.879 1515.64 204.244 1515.64 M204.244 1511.93 Q210.055 1511.93 213.11 1516.54 Q216.189 1521.12 216.189 1529.87 Q216.189 1538.6 213.11 1543.21 Q210.055 1547.79 204.244 1547.79 Q198.434 1547.79 195.356 1543.21 Q192.3 1538.6 192.3 1529.87 Q192.3 1521.12 195.356 1516.54 Q198.434 1511.93 204.244 1511.93 Z" fill="#000000" fill-rule="evenodd" fill-opacity="1" /><path clip-path="url(#clip130)" d="M607.969 1543.18 L615.608 1543.18 L615.608 1516.82 L607.298 1518.49 L607.298 1514.23 L615.562 1512.56 L620.237 1512.56 L620.237 1543.18 L627.876 1543.18 L627.876 1547.12 L607.969 1547.12 L607.969 1543.18 Z" fill="#000000" fill-rule="evenodd" fill-opacity="1" /><path clip-path="url(#clip130)" d="M1025.58 1543.18 L1041.9 1543.18 L1041.9 1547.12 L1019.96 1547.12 L1019.96 1543.18 Q1022.62 1540.43 1027.2 1535.8 Q1031.81 1531.15 1032.99 1529.81 Q1035.23 1527.28 1036.11 1525.55 Q1037.02 1523.79 1037.02 1522.1 Q1037.02 1519.34 1035.07 1517.61 Q1033.15 1515.87 1030.05 1515.87 Q1027.85 1515.87 1025.4 1516.63 Q1022.97 1517.4 1020.19 1518.95 L1020.19 1514.23 Q1023.01 1513.09 1025.47 1512.51 Q1027.92 1511.93 1029.96 1511.93 Q1035.33 1511.93 1038.52 1514.62 Q1041.72 1517.31 1041.72 1521.8 Q1041.72 1523.93 1040.91 1525.85 Q1040.12 1527.74 1038.01 1530.34 Q1037.43 1531.01 1034.33 1534.23 Q1031.23 1537.42 1025.58 1543.18 Z" fill="#000000" fill-rule="evenodd" fill-opacity="1" /><path clip-path="url(#clip130)" d="M1448.52 1528.49 Q1451.88 1529.2 1453.75 1531.47 Q1455.65 1533.74 1455.65 1537.07 Q1455.65 1542.19 1452.13 1544.99 Q1448.61 1547.79 1442.13 1547.79 Q1439.95 1547.79 1437.64 1547.35 Q1435.35 1546.93 1432.89 1546.08 L1432.89 1541.56 Q1434.84 1542.7 1437.15 1543.28 Q1439.47 1543.86 1441.99 1543.86 Q1446.39 1543.86 1448.68 1542.12 Q1451 1540.38 1451 1537.07 Q1451 1534.02 1448.84 1532.31 Q1446.71 1530.57 1442.89 1530.57 L1438.87 1530.57 L1438.87 1526.73 L1443.08 1526.73 Q1446.53 1526.73 1448.36 1525.36 Q1450.19 1523.97 1450.19 1521.38 Q1450.19 1518.72 1448.29 1517.31 Q1446.41 1515.87 1442.89 1515.87 Q1440.97 1515.87 1438.77 1516.29 Q1436.58 1516.7 1433.94 1517.58 L1433.94 1513.42 Q1436.6 1512.68 1438.91 1512.31 Q1441.25 1511.93 1443.31 1511.93 Q1448.64 1511.93 1451.74 1514.37 Q1454.84 1516.77 1454.84 1520.89 Q1454.84 1523.76 1453.2 1525.75 Q1451.55 1527.72 1448.52 1528.49 Z" fill="#000000" fill-rule="evenodd" fill-opacity="1" /><path clip-path="url(#clip130)" d="M1860.62 1516.63 L1848.82 1535.08 L1860.62 1535.08 L1860.62 1516.63 M1859.4 1512.56 L1865.28 1512.56 L1865.28 1535.08 L1870.21 1535.08 L1870.21 1538.97 L1865.28 1538.97 L1865.28 1547.12 L1860.62 1547.12 L1860.62 1538.97 L1845.02 1538.97 L1845.02 1534.46 L1859.4 1512.56 Z" fill="#000000" fill-rule="evenodd" fill-opacity="1" /><path clip-path="url(#clip130)" d="M2261.23 1512.56 L2279.59 1512.56 L2279.59 1516.5 L2265.52 1516.5 L2265.52 1524.97 Q2266.54 1524.62 2267.55 1524.46 Q2268.57 1524.27 2269.59 1524.27 Q2275.38 1524.27 2278.76 1527.44 Q2282.14 1530.62 2282.14 1536.03 Q2282.14 1541.61 2278.67 1544.71 Q2275.19 1547.79 2268.87 1547.79 Q2266.7 1547.79 2264.43 1547.42 Q2262.18 1547.05 2259.78 1546.31 L2259.78 1541.61 Q2261.86 1542.74 2264.08 1543.3 Q2266.3 1543.86 2268.78 1543.86 Q2272.79 1543.86 2275.12 1541.75 Q2277.46 1539.64 2277.46 1536.03 Q2277.46 1532.42 2275.12 1530.31 Q2272.79 1528.21 2268.78 1528.21 Q2266.91 1528.21 2265.03 1528.62 Q2263.18 1529.04 2261.23 1529.92 L2261.23 1512.56 Z" fill="#000000" fill-rule="evenodd" fill-opacity="1" /><polyline clip-path="url(#clip132)" style="stroke:#000000; stroke-linecap:butt; stroke-linejoin:round; stroke-width:2; stroke-opacity:0.1; fill:none" points="
  155.765,1316.32 2352.76,1316.32 
  "/>
<polyline clip-path="url(#clip132)" style="stroke:#000000; stroke-linecap:butt; stroke-linejoin:round; stroke-width:2; stroke-opacity:0.1; fill:none" points="
  155.765,981.425 2352.76,981.425 
  "/>
<polyline clip-path="url(#clip132)" style="stroke:#000000; stroke-linecap:butt; stroke-linejoin:round; stroke-width:2; stroke-opacity:0.1; fill:none" points="
  155.765,646.528 2352.76,646.528 
  "/>
<polyline clip-path="url(#clip132)" style="stroke:#000000; stroke-linecap:butt; stroke-linejoin:round; stroke-width:2; stroke-opacity:0.1; fill:none" points="
  155.765,311.63 2352.76,311.63 
  "/>
<polyline clip-path="url(#clip130)" style="stroke:#000000; stroke-linecap:butt; stroke-linejoin:round; stroke-width:4; stroke-opacity:1; fill:none" points="
  155.765,1486.45 155.765,47.2441 
  "/>
<polyline clip-path="url(#clip130)" style="stroke:#000000; stroke-linecap:butt; stroke-linejoin:round; stroke-width:4; stroke-opacity:1; fill:none" points="
  155.765,1316.32 174.663,1316.32 
  "/>
<polyline clip-path="url(#clip130)" style="stroke:#000000; stroke-linecap:butt; stroke-linejoin:round; stroke-width:4; stroke-opacity:1; fill:none" points="
  155.765,981.425 174.663,981.425 
  "/>
<polyline clip-path="url(#clip130)" style="stroke:#000000; stroke-linecap:butt; stroke-linejoin:round; stroke-width:4; stroke-opacity:1; fill:none" points="
  155.765,646.528 174.663,646.528 
  "/>
<polyline clip-path="url(#clip130)" style="stroke:#000000; stroke-linecap:butt; stroke-linejoin:round; stroke-width:4; stroke-opacity:1; fill:none" points="
  155.765,311.63 174.663,311.63 
  "/>
<path clip-path="url(#clip130)" d="M63.5847 1302.12 Q59.9736 1302.12 58.1449 1305.69 Q56.3393 1309.23 56.3393 1316.36 Q56.3393 1323.46 58.1449 1327.03 Q59.9736 1330.57 63.5847 1330.57 Q67.2189 1330.57 69.0244 1327.03 Q70.8531 1323.46 70.8531 1316.36 Q70.8531 1309.23 69.0244 1305.69 Q67.2189 1302.12 63.5847 1302.12 M63.5847 1298.42 Q69.3948 1298.42 72.4503 1303.02 Q75.529 1307.61 75.529 1316.36 Q75.529 1325.08 72.4503 1329.69 Q69.3948 1334.27 63.5847 1334.27 Q57.7745 1334.27 54.6958 1329.69 Q51.6403 1325.08 51.6403 1316.36 Q51.6403 1307.61 54.6958 1303.02 Q57.7745 1298.42 63.5847 1298.42 Z" fill="#000000" fill-rule="evenodd" fill-opacity="1" /><path clip-path="url(#clip130)" d="M83.7466 1327.72 L88.6308 1327.72 L88.6308 1333.6 L83.7466 1333.6 L83.7466 1327.72 Z" fill="#000000" fill-rule="evenodd" fill-opacity="1" /><path clip-path="url(#clip130)" d="M98.8622 1299.04 L117.219 1299.04 L117.219 1302.98 L103.145 1302.98 L103.145 1311.45 Q104.163 1311.1 105.182 1310.94 Q106.2 1310.76 107.219 1310.76 Q113.006 1310.76 116.385 1313.93 Q119.765 1317.1 119.765 1322.51 Q119.765 1328.09 116.293 1331.2 Q112.82 1334.27 106.501 1334.27 Q104.325 1334.27 102.057 1333.9 Q99.8113 1333.53 97.4039 1332.79 L97.4039 1328.09 Q99.4872 1329.23 101.709 1329.78 Q103.932 1330.34 106.408 1330.34 Q110.413 1330.34 112.751 1328.23 Q115.089 1326.13 115.089 1322.51 Q115.089 1318.9 112.751 1316.8 Q110.413 1314.69 106.408 1314.69 Q104.534 1314.69 102.659 1315.11 Q100.807 1315.52 98.8622 1316.4 L98.8622 1299.04 Z" fill="#000000" fill-rule="evenodd" fill-opacity="1" /><path clip-path="url(#clip130)" d="M53.3995 994.77 L61.0384 994.77 L61.0384 968.404 L52.7282 970.071 L52.7282 965.812 L60.9921 964.145 L65.668 964.145 L65.668 994.77 L73.3068 994.77 L73.3068 998.705 L53.3995 998.705 L53.3995 994.77 Z" fill="#000000" fill-rule="evenodd" fill-opacity="1" /><path clip-path="url(#clip130)" d="M82.7512 992.826 L87.6354 992.826 L87.6354 998.705 L82.7512 998.705 L82.7512 992.826 Z" fill="#000000" fill-rule="evenodd" fill-opacity="1" /><path clip-path="url(#clip130)" d="M107.821 967.224 Q104.209 967.224 102.381 970.789 Q100.575 974.33 100.575 981.46 Q100.575 988.566 102.381 992.131 Q104.209 995.673 107.821 995.673 Q111.455 995.673 113.26 992.131 Q115.089 988.566 115.089 981.46 Q115.089 974.33 113.26 970.789 Q111.455 967.224 107.821 967.224 M107.821 963.52 Q113.631 963.52 116.686 968.127 Q119.765 972.71 119.765 981.46 Q119.765 990.187 116.686 994.793 Q113.631 999.377 107.821 999.377 Q102.01 999.377 98.9317 994.793 Q95.8761 990.187 95.8761 981.46 Q95.8761 972.71 98.9317 968.127 Q102.01 963.52 107.821 963.52 Z" fill="#000000" fill-rule="evenodd" fill-opacity="1" /><path clip-path="url(#clip130)" d="M54.3949 659.873 L62.0337 659.873 L62.0337 633.507 L53.7236 635.174 L53.7236 630.915 L61.9874 629.248 L66.6633 629.248 L66.6633 659.873 L74.3022 659.873 L74.3022 663.808 L54.3949 663.808 L54.3949 659.873 Z" fill="#000000" fill-rule="evenodd" fill-opacity="1" /><path clip-path="url(#clip130)" d="M83.7466 657.928 L88.6308 657.928 L88.6308 663.808 L83.7466 663.808 L83.7466 657.928 Z" fill="#000000" fill-rule="evenodd" fill-opacity="1" /><path clip-path="url(#clip130)" d="M98.8622 629.248 L117.219 629.248 L117.219 633.183 L103.145 633.183 L103.145 641.655 Q104.163 641.308 105.182 641.146 Q106.2 640.961 107.219 640.961 Q113.006 640.961 116.385 644.132 Q119.765 647.303 119.765 652.72 Q119.765 658.299 116.293 661.4 Q112.82 664.479 106.501 664.479 Q104.325 664.479 102.057 664.109 Q99.8113 663.738 97.4039 662.998 L97.4039 658.299 Q99.4872 659.433 101.709 659.988 Q103.932 660.544 106.408 660.544 Q110.413 660.544 112.751 658.438 Q115.089 656.331 115.089 652.72 Q115.089 649.109 112.751 647.002 Q110.413 644.896 106.408 644.896 Q104.534 644.896 102.659 645.313 Q100.807 645.729 98.8622 646.609 L98.8622 629.248 Z" fill="#000000" fill-rule="evenodd" fill-opacity="1" /><path clip-path="url(#clip130)" d="M56.6171 324.975 L72.9365 324.975 L72.9365 328.91 L50.9921 328.91 L50.9921 324.975 Q53.6541 322.221 58.2375 317.591 Q62.8439 312.938 64.0245 311.596 Q66.2698 309.073 67.1494 307.337 Q68.0522 305.577 68.0522 303.887 Q68.0522 301.133 66.1078 299.397 Q64.1865 297.661 61.0847 297.661 Q58.8856 297.661 56.4319 298.425 Q54.0014 299.188 51.2236 300.739 L51.2236 296.017 Q54.0477 294.883 56.5014 294.304 Q58.955 293.725 60.9921 293.725 Q66.3624 293.725 69.5568 296.411 Q72.7513 299.096 72.7513 303.587 Q72.7513 305.716 71.9411 307.637 Q71.1541 309.536 69.0476 312.128 Q68.4689 312.799 65.367 316.017 Q62.2652 319.211 56.6171 324.975 Z" fill="#000000" fill-rule="evenodd" fill-opacity="1" /><path clip-path="url(#clip130)" d="M82.7512 323.031 L87.6354 323.031 L87.6354 328.91 L82.7512 328.91 L82.7512 323.031 Z" fill="#000000" fill-rule="evenodd" fill-opacity="1" /><path clip-path="url(#clip130)" d="M107.821 297.429 Q104.209 297.429 102.381 300.994 Q100.575 304.536 100.575 311.665 Q100.575 318.772 102.381 322.336 Q104.209 325.878 107.821 325.878 Q111.455 325.878 113.26 322.336 Q115.089 318.772 115.089 311.665 Q115.089 304.536 113.26 300.994 Q111.455 297.429 107.821 297.429 M107.821 293.725 Q113.631 293.725 116.686 298.332 Q119.765 302.915 119.765 311.665 Q119.765 320.392 116.686 324.998 Q113.631 329.582 107.821 329.582 Q102.01 329.582 98.9317 324.998 Q95.8761 320.392 95.8761 311.665 Q95.8761 302.915 98.9317 298.332 Q102.01 293.725 107.821 293.725 Z" fill="#000000" fill-rule="evenodd" fill-opacity="1" /><polyline clip-path="url(#clip132)" style="stroke:#009af9; stroke-linecap:butt; stroke-linejoin:round; stroke-width:4; stroke-opacity:1; fill:none" points="
  2270.96,981.425 2268.87,954.102 2262.49,925.739 2251.72,896.377 2236.47,866.075 2216.72,834.902 2192.39,802.919 2163,770.045 2128.83,736.457 2090.35,702.383 
  2048.01,668.039 2002.24,633.63 1953.46,599.347 1902.08,565.369 1848.49,531.864 1793.06,498.987 1736.17,466.88 1678.14,435.674 1619.32,405.487 1560.03,376.426 
  1500.56,348.582 1441.2,322.039 1382.24,296.865 1323.91,273.117 1266.48,250.84 1210.17,230.066 1155.19,210.815 1101.75,193.095 1050.02,176.903 1000.42,162.332 
  953.119,149.416 908.073,138.087 865.226,128.283 824.525,119.94 785.914,112.994 749.34,107.384 714.744,103.048 682.071,99.9267 651.263,97.9594 622.262,97.0874 
  595.008,97.2525 569.442,98.3973 545.504,100.465 523.131,103.4 502.263,107.147 482.836,111.651 464.788,116.859 448.053,122.719 432.568,129.178 418.266,136.184 
  405.081,143.687 392.936,151.636 381.661,159.964 371.169,168.633 361.4,177.611 352.302,186.868 343.824,196.377 335.918,206.112 328.541,216.047 321.653,226.16 
  315.217,236.429 309.201,246.835 303.575,257.359 298.314,267.984 293.395,278.696 288.799,289.481 284.512,300.327 280.522,311.226 276.819,322.166 273.361,333.132 
  270.121,344.113 267.085,355.101 264.238,366.088 261.568,377.067 259.062,388.032 256.708,398.978 254.497,409.897 252.417,420.786 250.46,431.638 248.617,442.45 
  246.881,453.218 245.245,463.938 243.702,474.607 242.247,485.222 240.876,495.78 239.584,506.281 238.365,516.72 237.213,527.095 236.125,537.406 235.097,547.65 
  234.124,557.827 233.205,567.935 232.336,577.973 231.513,587.94 230.735,597.835 229.998,607.658 229.299,617.407 228.638,627.083 228.01,636.683 227.415,646.208 
  226.851,655.658 226.314,665.032 225.805,674.33 225.322,683.551 224.863,692.696 224.427,701.764 224.013,710.756 223.62,719.671 223.249,728.511 222.897,737.275 
  222.566,745.964 222.252,754.578 221.955,763.115 221.673,771.578 221.407,779.966 221.155,788.279 220.918,796.518 220.693,804.683 220.482,812.775 220.284,820.794 
  220.097,828.739 219.922,836.613 219.759,844.414 219.606,852.144 219.463,859.803 219.331,867.391 219.208,874.908 219.095,882.356 218.99,889.734 218.894,897.044 
  218.807,904.284 218.728,911.457 218.657,918.562 218.594,925.599 218.539,932.571 218.491,939.475 218.45,946.315 218.416,953.089 218.39,959.798 218.37,966.443 
  218.358,973.025 218.352,979.544 218.354,986 218.362,992.394 218.377,998.726 218.398,1005 218.426,1011.21 218.461,1017.36 218.502,1023.45 218.55,1029.48 
  218.605,1035.45 218.666,1041.37 218.734,1047.23 218.808,1053.03 218.889,1058.77 218.977,1064.46 219.072,1070.09 219.173,1075.66 219.281,1081.18 219.397,1086.65 
  219.519,1092.06 219.649,1097.42 219.786,1102.72 219.931,1107.98 220.083,1113.18 220.242,1118.33 220.41,1123.42 220.586,1128.47 220.769,1133.46 220.961,1138.41 
  221.162,1143.31 221.371,1148.15 221.589,1152.95 221.816,1157.7 222.052,1162.4 222.298,1167.06 222.553,1171.66 222.819,1176.22 223.094,1180.73 223.381,1185.2 
  223.677,1189.62 223.985,1194 224.304,1198.33 224.637,1202.62 224.986,1206.86 225.349,1211.06 225.728,1215.21 226.121,1219.32 226.528,1223.39 226.951,1227.42 
  227.387,1231.4 227.839,1235.34 228.306,1239.24 228.787,1243.1 229.284,1246.92 229.796,1250.7 230.324,1254.43 230.868,1258.13 231.43,1261.79 232.008,1265.41 
  232.604,1268.99 233.219,1272.53 233.852,1276.04 234.506,1279.5 235.18,1282.93 235.875,1286.32 236.593,1289.68 237.334,1292.99 238.099,1296.27 238.89,1299.52 
  239.707,1302.72 240.551,1305.9 241.424,1309.03 242.327,1312.13 243.261,1315.19 244.228,1318.22 245.229,1321.22 246.266,1324.18 247.339,1327.1 248.452,1329.99 
  249.604,1332.84 250.799,1335.67 252.037,1338.45 253.321,1341.2 254.652,1343.92 256.032,1346.61 257.463,1349.26 258.948,1351.87 260.488,1354.46 262.086,1357.01 
  263.743,1359.52 265.461,1362 267.244,1364.45 269.093,1366.87 271.012,1369.25 273.001,1371.6 275.064,1373.91 277.203,1376.2 279.421,1378.45 281.721,1380.66 
  284.105,1382.84 286.576,1384.99 289.137,1387.11 291.79,1389.19 294.539,1391.24 297.387,1393.25 300.336,1395.23 303.39,1397.18 306.552,1399.09 309.825,1400.97 
  313.212,1402.82 316.716,1404.63 320.342,1406.41 324.091,1408.15 327.966,1409.85 331.971,1411.52 336.114,1413.14 340.4,1414.73 344.838,1416.28 349.435,1417.79 
  354.197,1419.27 359.132,1420.71 364.249,1422.11 369.554,1423.48 375.057,1424.81 380.765,1426.11 386.687,1427.37 392.833,1428.59 399.21,1429.77 405.828,1430.92 
  412.696,1432.03 419.825,1433.1 427.223,1434.13 434.9,1435.12 442.868,1436.06 451.135,1436.97 459.713,1437.82 468.613,1438.64 477.845,1439.4 487.421,1440.12 
  497.351,1440.79 507.648,1441.4 518.323,1441.96 529.388,1442.47 540.855,1442.91 552.737,1443.3 565.045,1443.62 577.794,1443.88 590.995,1444.07 604.663,1444.19 
  618.809,1444.24 633.448,1444.22 648.594,1444.11 664.26,1443.93 680.46,1443.66 697.21,1443.3 714.522,1442.85 732.413,1442.31 750.897,1441.67 769.988,1440.93 
  789.704,1440.09 810.058,1439.13 831.066,1438.07 852.745,1436.88 875.111,1435.58 898.18,1434.15 921.968,1432.6 946.493,1430.91 971.752,1429.08 997.687,1427.08 
  1024.33,1424.91 1051.7,1422.56 1079.85,1420.03 1108.77,1417.31 1138.5,1414.39 1169.04,1411.27 1200.38,1407.94 1232.52,1404.37 1265.46,1400.57 1299.16,1396.51 
  1333.62,1392.18 1368.78,1387.57 1404.62,1382.65 1441.08,1377.4 1478.12,1371.8 1515.68,1365.84 1553.7,1359.48 1592.09,1352.7 1630.78,1345.48 1669.7,1337.79 
  1708.73,1329.59 1747.8,1320.86 1786.78,1311.57 1825.58,1301.68 1864.06,1291.17 1902.12,1279.98 1939.62,1268.09 1976.6,1255.54 2012.79,1242.26 2047.88,1228.18 
  2081.53,1213.23 2113.46,1197.35 2143.37,1180.5 2171,1162.62 2196.08,1143.68 2218.39,1123.66 2237.68,1102.54 2253.75,1080.29 2266.39,1056.93 2275.43,1032.46 
  2280.69,1006.88 2282.03,980.227 2279.29,952.522 2272.36,923.804 2261.12,894.12 2245.48,863.522 2225.36,832.073 2200.68,799.843 2171.36,766.892 2137.12,733.206 
  2098.32,698.976 2055.46,664.425 2008.99,629.764 1959.37,595.193 1907.02,560.899 1852.36,527.057 1795.8,493.828 1737.71,461.364 1678.48,429.803 1618.46,399.27 
  1557.99,369.881 1497.39,341.735 1436.97,314.924 1377.03,289.524 1317.84,265.6 1259.67,243.205 1202.77,222.381 1147.36,203.154 1093.66,185.543 1041.88,169.551 
  992.197,155.179 944.754,142.449 899.56,131.317 856.607,121.728 815.877,113.624 777.343,106.947 740.969,101.636 706.71,97.63 674.509,94.8643 644.303,93.2742 
  616.018,92.7929 589.571,93.352 564.87,94.8815 541.813,97.3099 520.294,100.565 500.233,104.587 481.538,109.319 464.119,114.706 447.89,120.696 432.77,127.24 
  418.684,134.292 405.562,141.807 393.338,149.744 381.953,158.064 371.351,166.733 361.483,175.717 352.304,184.986 343.774,194.511 335.856,204.268 328.483,214.222 
  321.611,224.352 315.204,234.638 309.228,245.06 303.65,255.602 298.442,266.247 293.575,276.979 289.025,287.784 284.767,298.648 280.78,309.56 277.046,320.506 
  273.546,331.479 270.266,342.467 267.192,353.462 264.315,364.459 261.626,375.45 259.109,386.427 256.746,397.384 254.525,408.313 252.438,419.212 250.475,430.075 
  248.629,440.899 246.892,451.68 245.255,462.413 243.713,473.096 242.259,483.726 240.887,494.3 239.591,504.814 238.367,515.268 237.21,525.658 236.115,535.983 
  235.08,546.242 234.101,556.432 233.175,566.554 232.301,576.605 231.475,586.586 230.693,596.494 229.952,606.329 229.25,616.089 228.584,625.776 227.954,635.388 
  227.357,644.925 226.791,654.387 226.255,663.773 225.747,673.084 225.266,682.319 224.811,691.477 224.379,700.56 223.969,709.566 223.581,718.497 223.214,727.351 
  222.865,736.129 222.534,744.831 222.221,753.457 221.923,762.007 221.642,770.482 221.374,778.881 221.121,787.206 220.881,795.455 220.655,803.631 220.44,811.732 
  220.238,819.76 220.047,827.715 219.869,835.598 219.701,843.408 219.545,851.147 219.4,858.816 219.266,866.414 219.141,873.941 219.026,881.399 218.92,888.787 
  218.822,896.106 218.734,903.357 218.653,910.539 218.58,917.654 218.516,924.702 218.459,931.683 218.41,938.598 218.369,945.447 218.334,952.232 218.308,958.951 
  218.288,965.606 218.275,972.198 218.269,978.727 218.27,985.192 218.277,991.596 218.292,997.937 218.313,1004.22 218.34,1010.44 218.375,1016.6 218.415,1022.7 
  218.462,1028.74 218.516,1034.72 218.576,1040.64 218.643,1046.51 218.716,1052.31 218.796,1058.06 218.883,1063.76 218.976,1069.4 219.077,1074.98 219.184,1080.51 
  219.298,1085.98 219.42,1091.4 219.548,1096.77 219.684,1102.08 219.828,1107.34 219.979,1112.55 220.137,1117.7 220.303,1122.81 220.477,1127.86 220.659,1132.87 
  220.848,1137.82 221.046,1142.72 221.253,1147.58 221.468,1152.38 221.692,1157.14 221.925,1161.85 222.167,1166.51 222.419,1171.12 222.68,1175.69 222.952,1180.21 
  223.234,1184.68 223.526,1189.11 223.83,1193.49 224.145,1197.83 224.471,1202.13 224.81,1206.38 225.161,1210.58 225.524,1214.74 225.901,1218.86 226.292,1222.94 
  226.696,1226.97 227.115,1230.96 227.549,1234.91 227.998,1238.82 228.464,1242.68 228.945,1246.51 229.443,1250.29 229.959,1254.04 230.493,1257.74 231.045,1261.41 
  231.617,1265.03 232.208,1268.62 232.819,1272.17 233.451,1275.68 234.104,1279.15 234.78,1282.58 235.479,1285.97 236.209,1289.33 236.973,1292.65 237.769,1295.93 
  238.598,1299.17 239.458,1302.37 240.349,1305.54 241.271,1308.67 242.224,1311.76 243.208,1314.82 244.224,1317.85 245.27,1320.83 246.349,1323.79 247.461,1326.71 
  248.605,1329.59 249.784,1332.44 250.998,1335.26 252.249,1338.04 253.536,1340.8 254.863,1343.51 256.231,1346.2 257.64,1348.85 259.093,1351.47 260.593,1354.06 
  262.14,1356.61 263.737,1359.14 265.387,1361.63 267.091,1364.09 268.853,1366.52 270.676,1368.91 272.561,1371.28 274.513,1373.61 276.533,1375.91 278.626,1378.18 
  280.795,1380.41 283.043,1382.62 285.375,1384.79 287.793,1386.93 290.301,1389.03 292.905,1391.11 295.607,1393.15 298.413,1395.16 301.327,1397.13 304.353,1399.08 
  307.496,1400.98 310.761,1402.86 314.152,1404.7 317.676,1406.5 321.337,1408.27 325.141,1410.01 329.093,1411.71 333.199,1413.37 337.464,1415 341.895,1416.59 
  346.498,1418.14 351.278,1419.66 356.243,1421.14 361.398,1422.58 366.75,1423.98 372.306,1425.34 378.073,1426.66 384.057,1427.94 390.266,1429.18 396.708,1430.38 
  403.388,1431.53 410.316,1432.65 417.498,1433.72 424.943,1434.74 432.658,1435.72 440.651,1436.66 448.931,1437.54 457.506,1438.38 466.384,1439.18 475.574,1439.92 
  485.085,1440.62 494.925,1441.26 505.103,1441.86 515.628,1442.4 526.503,1442.88 537.75,1443.29 549.388,1443.65 561.437,1443.94 573.917,1444.17 586.848,1444.33 
  600.247,1444.44 614.132,1444.47 628.522,1444.44 643.432,1444.34 658.881,1444.16 674.882,1443.92 691.454,1443.59 708.609,1443.19 726.362,1442.7 744.729,1442.12 
  763.721,1441.44 783.352,1440.67 803.635,1439.8 824.581,1438.82 846.202,1437.73 868.509,1436.51 891.512,1435.17 915.221,1433.7 939.645,1432.08 964.794,1430.32 
  990.676,1428.4 1017.3,1426.32 1044.67,1424.07 1072.79,1421.63 1101.68,1419.01 1131.34,1416.19 1161.76,1413.16 1192.97,1409.91 1224.95,1406.43 1257.67,1402.71 
  1291.06,1398.72 1325.11,1394.45 1359.84,1389.88 1395.25,1385.01 1431.3,1379.8 1467.97,1374.24 1505.22,1368.31 1543.01,1361.99 1581.26,1355.25 1619.91,1348.08 
  1658.88,1340.43 1698.06,1332.3 1737.36,1323.65 1776.65,1314.45 1815.82,1304.68 1854.72,1294.29 1893.21,1283.27 1931.13,1271.58 1968.3,1259.17 2004.55,1246.03 
  2039.68,1232.1 2073.5,1217.36 2105.78,1201.76 2136.31,1185.26 2164.85,1167.83 2191.16,1149.41 2214.97,1129.97 2236.03,1109.46 2254.04,1087.84 2268.73,1065.06 
  2279.83,1041.09 2287.2,1016 2290.58,989.786 2289.77,962.468 2284.61,934.069 2274.97,904.631 2260.78,874.208 2241.98,842.869 2218.6,810.697 2190.67,777.788 
  2158.27,744.255 2121.55,710.218 2080.66,675.803 2035.91,641.177 1987.65,606.512 1936.22,571.977 1881.99,537.737 1825.34,503.956 1766.69,470.794 1706.45,438.407 
  1645.06,406.951 1582.97,376.577 1520.64,347.438 1458.61,319.716 1397.2,293.498 1336.68,268.823 1277.3,245.725 1219.27,224.229 1162.8,204.353 1108.06,186.108 
  1055.21,169.496 1004.36,154.514 955.634,141.149 909.111,129.382 864.853,119.186 822.9,110.527 783.268,103.364 745.951,97.6458 710.92,93.3173 678.124,90.3138 
  647.487,88.5637 618.898,87.9763 592.186,88.435 567.23,89.8659 543.92,92.2014 522.152,95.377 501.827,99.3311 482.854,104.005 465.148,109.344 448.63,115.296 
  433.227,121.811 418.872,128.844 405.507,136.351 393.076,144.293 381.533,152.632 370.836,161.336 360.951,170.372 351.795,179.701 343.273,189.28 335.337,199.084 
  327.946,209.091 321.058,219.276 314.636,229.62 308.646,240.102 303.055,250.704 297.832,261.408 292.952,272.198 288.388,283.061 284.121,293.981 280.13,304.949 
  276.399,315.952 272.914,326.982 269.662,338.03 266.619,349.084 263.766,360.136 261.09,371.18 258.58,382.209 256.224,393.218 254.012,404.201 251.933,415.152 
  249.978,426.068 248.139,436.944 246.407,447.775 244.775,458.558 243.236,469.29 241.784,479.967 240.414,490.587 239.12,501.147 237.899,511.645 236.748,522.08 
  235.662,532.45 234.638,542.753 233.669,552.987 232.752,563.152 231.885,573.245 231.065,583.267 230.289,593.216 229.554,603.092 228.859,612.894 228.2,622.621 
  227.577,632.274 226.986,641.851 226.426,651.352 225.895,660.777 225.391,670.125 224.914,679.397 224.46,688.592 224.029,697.709 223.621,706.75 223.232,715.714 
  222.864,724.6 222.513,733.41 222.181,742.144 221.866,750.801 221.568,759.382 221.286,767.888 221.02,776.319 220.77,784.675 220.534,792.957 220.311,801.164 
  220.101,809.297 219.902,817.356 219.716,825.342 219.541,833.255 219.376,841.096 219.223,848.865 219.079,856.562 218.946,864.188 218.822,871.743 218.707,879.228 
  218.602,886.643 218.505,893.989 218.417,901.266 218.336,908.475 218.264,915.616 218.2,922.689 218.143,929.695 218.094,936.635 218.052,943.508 218.017,950.317 
  217.989,957.06 217.967,963.738 217.953,970.353 217.945,976.904 217.944,983.392 217.949,989.817 217.961,996.181 217.979,1002.48 218.004,1008.72 218.035,1014.91 
  218.073,1021.03 218.117,1027.09 218.168,1033.09 218.225,1039.03 218.288,1044.92 218.358,1050.75 218.434,1056.52 218.517,1062.23 218.606,1067.89 218.702,1073.5 
  218.805,1079.04 218.914,1084.54 219.03,1089.98 219.154,1095.36 219.284,1100.69 219.421,1105.97 219.566,1111.2 219.718,1116.37 219.877,1121.49 220.044,1126.57 
  220.219,1131.59 220.402,1136.56 220.593,1141.48 220.793,1146.35 221.001,1151.17 221.218,1155.95 221.443,1160.67 221.678,1165.35 221.923,1169.98 222.177,1174.56 
  222.441,1179.1 222.715,1183.59 222.999,1188.03 223.294,1192.43 223.601,1196.78 223.918,1201.09 224.247,1205.36 224.588,1209.58 224.941,1213.76 225.307,1217.89 
  225.686,1221.98 226.078,1226.03 226.488,1230.04 226.919,1234 227.368,1237.92 227.835,1241.8 228.321,1245.63 228.825,1249.43 229.347,1253.19 229.886,1256.9 
  230.443,1260.58 231.018,1264.21 231.61,1267.81 232.221,1271.37 232.849,1274.89 233.497,1278.37 234.163,1281.81 234.849,1285.22 235.555,1288.59 236.282,1291.92 
  237.03,1295.22 237.8,1298.48 238.594,1301.7 239.411,1304.89 240.254,1308.05 241.122,1311.16 242.018,1314.25 242.942,1317.3 243.897,1320.31 244.882,1323.29 
  245.9,1326.23 246.952,1329.14 248.04,1332.02 249.166,1334.86 250.33,1337.67 251.536,1340.45 252.785,1343.19 254.078,1345.9 255.419,1348.57 256.809,1351.22 
  258.25,1353.83 259.745,1356.4 261.295,1358.95 262.904,1361.46 264.574,1363.94 266.308,1366.38 268.108,1368.79 269.976,1371.17 271.916,1373.52 273.931,1375.83 
  276.023,1378.11 278.195,1380.36 280.452,1382.57 282.795,1384.76 285.228,1386.9 287.754,1389.02 290.377,1391.1 293.1,1393.15 295.928,1395.16 298.862,1397.14 
  301.908,1399.09 305.068,1401 308.347,1402.88 311.749,1404.72 315.277,1406.53 318.936,1408.31 322.73,1410.05 326.662,1411.75 330.738,1413.42 334.962,1415.05 
  339.338,1416.65 343.871,1418.21 348.564,1419.74 353.424,1421.23 358.455,1422.68 363.66,1424.09 369.046,1425.47 374.618,1426.8 380.385,1428.1 386.363,1429.36 
  392.56,1430.58 398.984,1431.76 405.644,1432.9 412.549,1433.99 419.708,1435.05 427.132,1436.06 434.83,1437.03 442.812,1437.95 451.088,1438.83 459.669,1439.66 
  468.566,1440.45 477.791,1441.19 487.354,1441.88 497.267,1442.51 507.543,1443.1 518.193,1443.63 529.23,1444.1 540.666,1444.52 552.516,1444.88 564.791,1445.18 
  577.507,1445.41 590.675,1445.58 604.311,1445.68 618.429,1445.72 633.044,1445.68 648.169,1445.56 663.822,1445.37 680.016,1445.1 696.768,1444.74 714.093,1444.3 
  732.008,1443.77 
  "/>
<path clip-path="url(#clip130)" d="
M1982.98 198.898 L2279.52 198.898 L2279.52 95.2176 L1982.98 95.2176  Z
  " fill="#ffffff" fill-rule="evenodd" fill-opacity="1"/>
<polyline clip-path="url(#clip130)" style="stroke:#000000; stroke-linecap:butt; stroke-linejoin:round; stroke-width:4; stroke-opacity:1; fill:none" points="
  1982.98,198.898 2279.52,198.898 2279.52,95.2176 1982.98,95.2176 1982.98,198.898 
  "/>
<polyline clip-path="url(#clip130)" style="stroke:#009af9; stroke-linecap:butt; stroke-linejoin:round; stroke-width:4; stroke-opacity:1; fill:none" points="
  2007.39,147.058 2153.86,147.058 
  "/>
<path clip-path="url(#clip130)" d="M2192.11 166.745 Q2190.31 171.375 2188.59 172.787 Q2186.88 174.199 2184.01 174.199 L2180.61 174.199 L2180.61 170.634 L2183.11 170.634 Q2184.87 170.634 2185.84 169.8 Q2186.81 168.967 2187.99 165.865 L2188.76 163.921 L2178.27 138.412 L2182.78 138.412 L2190.89 158.689 L2198.99 138.412 L2203.5 138.412 L2192.11 166.745 Z" fill="#000000" fill-rule="evenodd" fill-opacity="1" /><path clip-path="url(#clip130)" d="M2210.79 160.402 L2218.43 160.402 L2218.43 134.037 L2210.12 135.703 L2210.12 131.444 L2218.39 129.778 L2223.06 129.778 L2223.06 160.402 L2230.7 160.402 L2230.7 164.338 L2210.79 164.338 L2210.79 160.402 Z" fill="#000000" fill-rule="evenodd" fill-opacity="1" /></svg>
